{"title":"The.Man.Who.Cried.1993.DVDRip.x264.Iou1","uid":11604235,"size":1460603353,"categoryP":"video","categoryS":"movies","magnet":"?xt=urn:btih:aeaa1fdb290c17883ee271b71436e57be5333e4f&amp;dn=The.Man.Who.Cried.1993.DVDRip.x264.Iou1&amp;tr=udp%3A%2F%2Ftracker.openbittorrent.com%3A80&amp;tr=udp%3A%2F%2Fopen.demonii.com%3A1337&amp;tr=udp%3A%2F%2Ftracker.coppersurfer.tk%3A6969&amp;tr=udp%3A%2F%2Fexodus.desync.com%3A6969","seeders":0,"leechers":2,"uploader":"jaybee211","files":-1,"time":1417389797,"description":"The.Man.Who.Cried.1993.DVDRip.x264.Iou1\nGenre                                    : Drama\nFormat                                   : MPEG-4\nFormat profile                           : Base Media / Version 2\nCodec ID                                 : mp42\nFile size                                : 1.35 GiB\nDuration                                 : 2h 31mn 41s\nOverall bit rate mode                    : Variable\nOverall bit rate                         : 1 280 Kbps\n\nVideo\nID                                       : 1\nFormat                                   : AVC\nFormat/Info                              : Advanced Video Codec\nFormat profile                           : &lt;a class=&quot;__cf_email__&quot; href=&quot;/cdn-cgi/l/email-protection&quot; data-cfemail=&quot;044c6d636c4448372a35&quot;&gt;[email&amp;#160;protected]&lt;/a&gt;&lt;script cf-hash='f9e31' type=&quot;text/javascript&quot;&gt;\n/* &lt;![CDATA[ */!function(){try{var t=&quot;currentScript&quot;in document?document.currentScript:function(){for(var t=document.getElementsByTagName(&quot;script&quot;),e=t.length;e--;)if(t[e].getAttribute(&quot;cf-hash&quot;))return t[e]}();if(t&amp;&amp;t.previousSibling){var e,r,n,i,c=t.previousSibling,a=c.getAttribute(&quot;data-cfemail&quot;);if(a){for(e=&quot;&quot;,r=parseInt(a.substr(0,2),16),n=2;a.length-n;n+=2)i=parseInt(a.substr(n,2),16)^r,e+=String.fromCharCode(i);e=document.createTextNode(e),c.parentNode.replaceChild(e,c)}}}catch(u){}}();/* ]]&gt; */&lt;/script&gt;\nFormat settings, CABAC                   : Yes\nFormat settings, ReFrames                : 4 frames\nCodec ID                                 : avc1\nCodec ID/Info                            : Advanced Video Coding\nDuration                                 : 2h 31mn 41s\nBit rate                                 : 1 176 Kbps\nMaximum bit rate                         : 3 096 Kbps\nWidth                                    : 720 pixels\nHeight                                   : 588 pixels\nDisplay aspect ratio                     : 4:3\nFrame rate mode                          : Constant\nFrame rate                               : 25.000 fps\nStandard                                 : PAL\nColor space                              : YUV\nChroma subsampling                       : 4:2:0\nBit depth                                : 8 bits\nScan type                                : Progressive\nBits/(Pixel*Frame)                       : 0.111\nStream size                              : 1.24 GiB (92%)\n\nAudio\nID                                       : 2\nFormat                                   : AAC\nFormat/Info                              : Advanced Audio Codec\nFormat profile                           : LC\nCodec ID                                 : 40\nDuration                                 : 2h 31mn 41s\nBit rate mode                            : Variable\nBit rate                                 : 93.9 Kbps\nMaximum bit rate                         : 110 Kbps\nChannel(s)                               : 2 channels\nChannel positions                        : Front: L R\nSampling rate                            : 48.0 KHz\nCompression mode                         : Lossy\nStream size                              : 108 MiB (8%)\nTitle                                    : English\nSubtitles                                : English\nHardcoded                                : No\nNote. AR Is Slightly Of In Screens, Video Displays @ 4:3 In VLC &amp; WMP\n\nScreens. &lt;a href=&quot; http://bayimg.com/eAHiCAaGl&quot; rel=&quot;nofollow&quot; target=&quot;_NEW&quot;&gt; http://bayimg.com/eAHiCAaGl&lt;/a&gt;\n\n         &lt;a href=&quot; http://bayimg.com/eAhIFAAgl&quot; rel=&quot;nofollow&quot; target=&quot;_NEW&quot;&gt; http://bayimg.com/eAhIFAAgl&lt;/a&gt;\n\nIMDB. &lt;a href=&quot; http://www.imdb.com/title/tt0106060/&quot; rel=&quot;nofollow&quot; target=&quot;_NEW&quot;&gt; http://www.imdb.com/title/tt0106060/&lt;/a&gt;\n\nStoryline.\nAbel Mason is a man caught in a loveless marriage with a harridan wife who constantly berates him and beats their son Dick. When the one woman he loves dies at the hands of her husband after he was sent a letter by Mason's wife, exposing the affair, Abel leaves her for good taking to the road and young Dick with him.\n\nEnjoy","torrent":{"xt":"urn:btih:aeaa1fdb290c17883ee271b71436e57be5333e4f","amp;dn":"The.Man.Who.Cried.1993.DVDRip.x264.Iou1","amp;tr":["udp%3A%2F%2Ftracker.openbittorrent.com%3A80","udp%3A%2F%2Fopen.demonii.com%3A1337","udp%3A%2F%2Ftracker.coppersurfer.tk%3A6969","udp%3A%2F%2Fexodus.desync.com%3A6969"],"infoHash":"aeaa1fdb290c17883ee271b71436e57be5333e4f","infoHashBuffer":{"type":"Buffer","data":[174,170,31,219,41,12,23,136,62,226,113,183,20,54,229,123,229,51,62,79]},"announce":[],"urlList":[]}}